<svg xmlns="http://www.w3.org/2000/svg" xmlns:xlink="http://www.w3.org/1999/xlink" contentStyleType="text/css" height="843px" preserveAspectRatio="none" style="width:1466px;height:843px;background:#FFFFFF;" version="1.1" viewBox="0 0 1466 843" width="1466px" zoomAndPan="magnify"><defs/><g><!--cluster 2567a5ec9705eb7ac2c984033e06189d--><g id="cluster_2567a5ec9705eb7ac2c984033e06189d"><polygon fill="none" points="16,157.04,26,147.04,537,147.04,537,717.26,527,727.26,16,727.26,16,157.04" style="stroke:#181818;stroke-width:1.0;"/><line style="stroke:#181818;stroke-width:1.0;" x1="527" x2="537" y1="157.04" y2="147.04"/><line style="stroke:#181818;stroke-width:1.0;" x1="16" x2="527" y1="157.04" y2="157.04"/><line style="stroke:#181818;stroke-width:1.0;" x1="527" x2="527" y1="157.04" y2="727.26"/><text fill="#000000" font-family="sans-serif" font-size="14" font-weight="bold" lengthAdjust="spacing" textLength="35" x="255" y="173.0351">Web</text></g><!--cluster ed29e75037443b824dbc1dcabe0af817--><g id="cluster_ed29e75037443b824dbc1dcabe0af817"><polygon fill="none" points="577,157.04,587,147.04,864,147.04,864,320.52,854,330.52,577,330.52,577,157.04" style="stroke:#181818;stroke-width:1.0;"/><line style="stroke:#181818;stroke-width:1.0;" x1="854" x2="864" y1="157.04" y2="147.04"/><line style="stroke:#181818;stroke-width:1.0;" x1="577" x2="854" y1="157.04" y2="157.04"/><line style="stroke:#181818;stroke-width:1.0;" x1="854" x2="854" y1="157.04" y2="330.52"/><text fill="#000000" font-family="sans-serif" font-size="14" font-weight="bold" lengthAdjust="spacing" textLength="94" x="669.5" y="173.0351">Memcached</text></g><!--cluster e8a48653851e28c69d0506508fb27fc5--><g id="cluster_e8a48653851e28c69d0506508fb27fc5"><polygon fill="none" points="904,132.59,914,122.59,1449,122.59,1449,344.97,1439,354.97,904,354.97,904,132.59" style="stroke:#181818;stroke-width:1.0;"/><line style="stroke:#181818;stroke-width:1.0;" x1="1439" x2="1449" y1="132.59" y2="122.59"/><line style="stroke:#181818;stroke-width:1.0;" x1="904" x2="1439" y1="132.59" y2="132.59"/><line style="stroke:#181818;stroke-width:1.0;" x1="1439" x2="1439" y1="132.59" y2="354.97"/><text fill="#000000" font-family="sans-serif" font-size="14" font-weight="bold" lengthAdjust="spacing" textLength="71" x="1137" y="148.5851">Postgres</text></g><!--entity 04a565d19766ebe0348853b17c395bd1--><g id="elem_04a565d19766ebe0348853b17c395bd1"><rect fill="#F1F1F1" height="111.4844" rx="2.5" ry="2.5" style="stroke:#181818;stroke-width:0.5;" width="454" x="40" y="195.04"/><rect fill="#F1F1F1" height="10" style="stroke:#181818;stroke-width:0.5;" width="15" x="474" y="200.04"/><rect fill="#F1F1F1" height="2" style="stroke:#181818;stroke-width:0.5;" width="4" x="472" y="202.04"/><rect fill="#F1F1F1" height="2" style="stroke:#181818;stroke-width:0.5;" width="4" x="472" y="206.04"/><text fill="#000000" font-family="sans-serif" font-size="14" font-weight="bold" lengthAdjust="spacing" textLength="34" x="55" y="228.0351">web</text><text fill="#000000" font-family="sans-serif" font-size="14" lengthAdjust="spacing" textLength="4" x="55" y="244.332">&#160;</text><text fill="#000000" font-family="sans-serif" font-size="14" lengthAdjust="spacing" textLength="270" x="55" y="260.6289">environment: PYTHONUNBUFFERED=1</text><text fill="#000000" font-family="sans-serif" font-size="14" lengthAdjust="spacing" textLength="414" x="55" y="276.9257">environment: DJANGO_SETTINGS_MODULE=docker.settings</text><text fill="#000000" font-family="sans-serif" font-size="14" lengthAdjust="spacing" textLength="4" x="55" y="293.2226">&#160;</text></g><!--entity fd433df176955d196b161b0a41a19970--><g id="elem_fd433df176955d196b161b0a41a19970"><ellipse cx="398" cy="438.97" fill="#F1F1F1" rx="8" ry="8" style="stroke:#181818;stroke-width:0.5;"/><text fill="#000000" font-family="sans-serif" font-size="14" lengthAdjust="spacing" textLength="36" x="380" y="468.9651">8000</text></g><!--entity 659a1af6bdd796dcc0114835e1fba6cb--><g id="elem_659a1af6bdd796dcc0114835e1fba6cb"><rect fill="#F1F1F1" height="39.2969" rx="2.5" ry="2.5" style="stroke:#181818;stroke-width:0.5;" width="68" x="233" y="663.97"/><polygon fill="#F1F1F1" points="284,668.97,284,682.97,296,682.97,296,674.97,290,668.97,284,668.97" style="stroke:#181818;stroke-width:0.5;"/><line style="stroke:#181818;stroke-width:0.5;" x1="290" x2="290" y1="668.97" y2="674.97"/><line style="stroke:#181818;stroke-width:0.5;" x1="296" x2="290" y1="674.97" y2="674.97"/><text fill="#000000" font-family="sans-serif" font-size="14" lengthAdjust="spacing" textLength="38" x="243" y="689.9651">/guya</text></g><!--entity d9797c56b82854ce53c7c6c740e657f6--><g id="elem_d9797c56b82854ce53c7c6c740e657f6"><rect fill="#F1F1F1" height="111.4844" rx="2.5" ry="2.5" style="stroke:#181818;stroke-width:0.5;" width="220" x="601" y="195.04"/><rect fill="#F1F1F1" height="10" style="stroke:#181818;stroke-width:0.5;" width="15" x="801" y="200.04"/><rect fill="#F1F1F1" height="2" style="stroke:#181818;stroke-width:0.5;" width="4" x="799" y="202.04"/><rect fill="#F1F1F1" height="2" style="stroke:#181818;stroke-width:0.5;" width="4" x="799" y="206.04"/><text fill="#000000" font-family="sans-serif" font-size="14" font-weight="bold" lengthAdjust="spacing" textLength="95" x="616" y="228.0351">memcached</text><text fill="#000000" font-family="sans-serif" font-size="14" lengthAdjust="spacing" textLength="4" x="616" y="244.332">&#160;</text><text fill="#000000" font-family="sans-serif" font-size="14" lengthAdjust="spacing" textLength="180" x="616" y="260.6289">image: memcached:latest</text><text fill="#000000" font-family="sans-serif" font-size="14" lengthAdjust="spacing" textLength="99" x="616" y="276.9257">restart: always</text><text fill="#000000" font-family="sans-serif" font-size="14" lengthAdjust="spacing" textLength="4" x="616" y="293.2226">&#160;</text></g><!--entity 086f471fbe3ab94b73c9798cd7d205b7--><g id="elem_086f471fbe3ab94b73c9798cd7d205b7"><rect fill="#F1F1F1" height="160.375" rx="2.5" ry="2.5" style="stroke:#181818;stroke-width:0.5;" width="478" x="928" y="170.59"/><rect fill="#F1F1F1" height="10" style="stroke:#181818;stroke-width:0.5;" width="15" x="1386" y="175.59"/><rect fill="#F1F1F1" height="2" style="stroke:#181818;stroke-width:0.5;" width="4" x="1384" y="177.59"/><rect fill="#F1F1F1" height="2" style="stroke:#181818;stroke-width:0.5;" width="4" x="1384" y="181.59"/><text fill="#000000" font-family="sans-serif" font-size="14" font-weight="bold" lengthAdjust="spacing" textLength="71" x="943" y="203.5851">postgres</text><text fill="#000000" font-family="sans-serif" font-size="14" lengthAdjust="spacing" textLength="4" x="943" y="219.882">&#160;</text><text fill="#000000" font-family="sans-serif" font-size="14" lengthAdjust="spacing" textLength="156" x="943" y="236.1789">image: postgres:latest</text><text fill="#000000" font-family="sans-serif" font-size="14" lengthAdjust="spacing" textLength="99" x="943" y="252.4757">restart: always</text><text fill="#000000" font-family="sans-serif" font-size="14" lengthAdjust="spacing" textLength="438" x="943" y="268.7726">environment: POSTGRES_PASSWORD=POSTGRES_PASSWORD</text><text fill="#000000" font-family="sans-serif" font-size="14" lengthAdjust="spacing" textLength="352" x="943" y="285.0695">environment: POSTGRES_USER=POSTGRES_USER</text><text fill="#000000" font-family="sans-serif" font-size="14" lengthAdjust="spacing" textLength="293" x="943" y="301.3664">environment: POSTGRES_DB=kaguyamoe</text><text fill="#000000" font-family="sans-serif" font-size="14" lengthAdjust="spacing" textLength="4" x="943" y="317.6632">&#160;</text></g><!--entity 52db17dbde8be1b63c26eb0daa412ea4--><g id="elem_52db17dbde8be1b63c26eb0daa412ea4"><polygon fill="#F1F1F1" points="698.5,16,708.5,6,1013.5,6,1013.5,58.5938,1003.5,68.5938,698.5,68.5938,698.5,16" style="stroke:#181818;stroke-width:0.5;"/><line style="stroke:#181818;stroke-width:0.5;" x1="1003.5" x2="1013.5" y1="16" y2="6"/><line style="stroke:#181818;stroke-width:0.5;" x1="698.5" x2="1003.5" y1="16" y2="16"/><line style="stroke:#181818;stroke-width:0.5;" x1="1003.5" x2="1003.5" y1="16" y2="68.5938"/><text fill="#000000" font-family="sans-serif" font-size="14" font-weight="bold" lengthAdjust="spacing" textLength="275" x="713.5" y="38.9951">guyamoe-intercontinental-highway</text><text fill="#000000" font-family="sans-serif" font-size="14" lengthAdjust="spacing" textLength="74" x="713.5" y="55.292">&#171;network&#187;</text></g><!--entity 1624c420083928ef3e240dd88f2e52f0--><g id="elem_1624c420083928ef3e240dd88f2e52f0"><ellipse cx="588" cy="573.97" fill="#F1F1F1" rx="8" ry="8" style="stroke:#181818;stroke-width:0.5;"/><text fill="#000000" font-family="sans-serif" font-size="14" lengthAdjust="spacing" textLength="36" x="570" y="603.9651">8000</text></g><!--entity 800b5175f0832a0e721e0b062e7ed111--><g id="elem_800b5175f0832a0e721e0b062e7ed111"><rect fill="#F1F1F1" height="39.2969" rx="2.5" ry="2.5" style="stroke:#181818;stroke-width:0.5;" width="43" x="245.5" y="798.26"/><polygon fill="#F1F1F1" points="271.5,803.26,271.5,817.26,283.5,817.26,283.5,809.26,277.5,803.26,271.5,803.26" style="stroke:#181818;stroke-width:0.5;"/><line style="stroke:#181818;stroke-width:0.5;" x1="277.5" x2="277.5" y1="803.26" y2="809.26"/><line style="stroke:#181818;stroke-width:0.5;" x1="283.5" x2="277.5" y1="809.26" y2="809.26"/><text fill="#000000" font-family="sans-serif" font-size="14" lengthAdjust="spacing" textLength="13" x="255.5" y="824.2551">../</text></g><!--link 04a565d19766ebe0348853b17c395bd1 to fd433df176955d196b161b0a41a19970--><g id="link_04a565d19766ebe0348853b17c395bd1_fd433df176955d196b161b0a41a19970"><path codeLine="37" d="M305.77,306.89 C336.86,351.06 377.63,409.02 392.38,429.97 " fill="none" id="04a565d19766ebe0348853b17c395bd1-fd433df176955d196b161b0a41a19970" style="stroke:#181818;stroke-width:1.0;"/></g><!--link fd433df176955d196b161b0a41a19970 to 1624c420083928ef3e240dd88f2e52f0--><g id="link_fd433df176955d196b161b0a41a19970_1624c420083928ef3e240dd88f2e52f0"><path codeLine="38" d="M406.91,446.2 C438.9,468.59 547.73,544.77 579.33,566.9 " fill="none" id="fd433df176955d196b161b0a41a19970-1624c420083928ef3e240dd88f2e52f0" style="stroke:#181818;stroke-width:1.0;"/></g><!--link 659a1af6bdd796dcc0114835e1fba6cb to 800b5175f0832a0e721e0b062e7ed111--><g id="link_659a1af6bdd796dcc0114835e1fba6cb_800b5175f0832a0e721e0b062e7ed111"><path codeLine="39" d="M267,703.57 C267,728.72 267,772.86 267,797.99 " fill="none" id="659a1af6bdd796dcc0114835e1fba6cb-800b5175f0832a0e721e0b062e7ed111" style="stroke:#181818;stroke-width:1.0;"/><text fill="#000000" font-family="sans-serif" font-size="13" lengthAdjust="spacing" textLength="14" x="268" y="764.3269">rw</text></g><!--link 04a565d19766ebe0348853b17c395bd1 to 659a1af6bdd796dcc0114835e1fba6cb--><g id="link_04a565d19766ebe0348853b17c395bd1_659a1af6bdd796dcc0114835e1fba6cb"><path codeLine="40" d="M267,306.78 C267,404.1 267,596.19 267,657.86 " fill="none" id="04a565d19766ebe0348853b17c395bd1-to-659a1af6bdd796dcc0114835e1fba6cb" style="stroke:#181818;stroke-width:1.0;stroke-dasharray:7.0,7.0;"/><polygon fill="#181818" points="267,663.86,271,654.86,267,658.86,263,654.86,267,663.86" style="stroke:#181818;stroke-width:1.0;"/><text fill="#000000" font-family="sans-serif" font-size="13" lengthAdjust="spacing" textLength="23" x="268" y="511.0369">use</text></g><!--reverse link 52db17dbde8be1b63c26eb0daa412ea4 to 2567a5ec9705eb7ac2c984033e06189d--><g id="link_52db17dbde8be1b63c26eb0daa412ea4_2567a5ec9705eb7ac2c984033e06189d"><path codeLine="41" d="M692.496,53.4127 C651.806,63.4927 616.49,78.84 585,106.59 C559.77,128.83 545.81,163.865 538.1375,193.7125 C537.8977,194.6452 537.6641,195.5729 537.4365,196.495 C537.3227,196.956 537.2103,197.4156 537.0995,197.8738 " fill="none" id="52db17dbde8be1b63c26eb0daa412ea4-backto-2567a5ec9705eb7ac2c984033e06189d" style="stroke:#181818;stroke-width:1.0;"/><polygon fill="#181818" points="698.32,51.97,688.6222,50.2515,693.4667,53.1723,690.5459,58.0168,698.32,51.97" style="stroke:#181818;stroke-width:1.0;"/></g><!--reverse link 52db17dbde8be1b63c26eb0daa412ea4 to ed29e75037443b824dbc1dcabe0af817--><g id="link_52db17dbde8be1b63c26eb0daa412ea4_ed29e75037443b824dbc1dcabe0af817"><path codeLine="42" d="M856,75.05 C856,89.4825 856,101.7569 856,121.1081 C856,125.9459 856,130.8511 856,135.7803 C856,138.2449 856,140.7155 856,143.1868 C856,144.4224 856,145.6582 856,146.8935 " fill="none" id="52db17dbde8be1b63c26eb0daa412ea4-backto-ed29e75037443b824dbc1dcabe0af817" style="stroke:#181818;stroke-width:1.0;"/><polygon fill="#181818" points="856,69.05,852,78.05,856,74.05,860,78.05,856,69.05" style="stroke:#181818;stroke-width:1.0;"/></g><!--reverse link 52db17dbde8be1b63c26eb0daa412ea4 to e8a48653851e28c69d0506508fb27fc5--><g id="link_52db17dbde8be1b63c26eb0daa412ea4_e8a48653851e28c69d0506508fb27fc5"><path codeLine="43" d="M1019.7261,47.9184 C1176.9961,58.6484 1393.27,78.2 1422,106.59 C1424.8094,109.3662 1427.345,112.3429 1429.6299,115.4848 C1430.7724,117.0557 1431.8522,118.6679 1432.8722,120.3171 C1433.1272,120.7294 1433.3784,121.144 1433.626,121.5608 C1433.7498,121.7692 1433.8726,121.9782 1433.9946,122.1877 " fill="none" id="52db17dbde8be1b63c26eb0daa412ea4-backto-e8a48653851e28c69d0506508fb27fc5" style="stroke:#181818;stroke-width:1.0;"/><polygon fill="#181818" points="1013.74,47.51,1022.4469,52.1133,1018.7284,47.8503,1022.9914,44.1319,1013.74,47.51" style="stroke:#181818;stroke-width:1.0;"/></g><!--SRC=[ZLJRQjj057pNLmW_jG8xUx-Os91W9srfx63PXDAMi9SZHyIIWgtK3QN_thNYbBZ5A2y2xPwPdPazPyrgLMsB_6TUBgEoyX1tacJv-6IA2hfvMSFQLMMTbr3MPjMzovTtM_EK9D_AqzCIwcsrlXyEEx7Pn9nuYwMt7fG5R0LrH815tXY62HYs9xy1svGJBgJXuBH47AmqZZYj6A8KaC1A-_XN5BkgUAXs9yU86IwunrgAG0g8CgKu3USvghdrEFuQ9SaMR9944PG_ydLL5W7NZw-_p3zC9ul9-UBYOZmRZmRuS7_qwMnoERrDn_FvnybbUdir7Iq-ZmU-SlUmxcsW3jQNcoZw7hrx7tSKGgXHdtb6gS-m59hlP0cB1ROeM3LO1qkHMTTvPbmTTqvsOJOWmRN19XFMUwc5TmvXp1JbW3DhXBFHxtr6Lr0uu-x0Dp3mH8FaY4h6g5M4UUkmToR4O3A5vM5INaij7HUXK77cW5CddN2I8H1SPg99gdWvO9TNNfWbzEE_Q_sLgM5JH-lm2JRwiLc5AsyoU15uNMtgPTX_rgSCKu9JnJ4GvOJsY2F1aSeiaPdZ_zoa4XcJmJ5GOpMpaeOMqCfvwGdYLZRw7lRyh-IzB1rJTtZhqtH-EHkdjzTdQNepdOq6_wqS0IpIyMnmy7UaS7G-k3VxENcEvg11i23CCOAGefeeo2WGXhnNAYF0IVQwGNgzamOIi9PZoRE08GQ191YGHOA018ynZbg7eEkxxPtPLj2mjCflw-M6fSrHt8yxwssdtLYlvtkzOUi0xVWUDz29MX-NxcDtsFvYjKxU6sdQ1kHDD7y0]--></g></svg>